<?xml version="1.0" standalone="no"?>
<!DOCTYPE svg PUBLIC "-//W3C//DTD SVG 20010904//EN"
 "http://www.w3.org/TR/2001/REC-SVG-20010904/DTD/svg10.dtd">
<svg version="1.0" xmlns="http://www.w3.org/2000/svg"
 width="100.000000pt" height="100.000000pt" viewBox="0 0 100.000000 100.000000"
 preserveAspectRatio="xMidYMid meet">
<metadata>
Created by potrace 1.14, written by Peter Selinger 2001-2017
</metadata>
<g transform="translate(0.000000,100.000000) scale(0.100000,-0.100000)"
fill="#000000" stroke="none">
<path d="M445 967 c-48 -16 -85 -47 -116 -95 -35 -56 -36 -74 -4 -116 29 -38
31 -58 9 -123 -16 -49 -68 -106 -125 -140 -41 -25 -34 -51 21 -79 l44 -22 -31
-29 c-24 -22 -31 -38 -31 -66 0 -20 4 -40 9 -43 5 -3 9 -38 9 -78 0 -86 5 -92
99 -130 80 -32 114 -33 177 -1 81 41 197 161 230 240 15 37 15 165 -1 435 -2
30 -4 87 -6 125 -2 81 -12 109 -43 123 -29 13 -202 13 -241 -1z"/>
</g>
</svg>
